# xmcd
#
# Track frame offsets:
#	187
#	10477
#	19645
#	29452
#	42587
#	56490
#	68380
#	77020
#	89380
#	101492
#
# Disc length: 1529 seconds
#
# Revision: 4
# Processed by: cddbd v1.5.2PL0 Copyright (c) Steve Scherf et al.
# Submitted via: EZCDAudioConverter 7.1.4.1
#
DISCID=7305f70a
DTITLE=Various  - Country Gold Volume 3
DYEAR=2002
DGENRE=Country
TTITLE0=Roger Miller - Engine Engine Number 9
TTITLE1=Willie Nelson - Waiting Time
TTITLE2=Kitty Wells - Whose Shoulder Will You Cry On
TTITLE3=George Jones - Things Have Gone To Pieces
TTITLE4=Ernest Tubb and Merle Haggard - Seaman's Blues
TTITLE5=Willie Nelson - I'll Stay Around
TTITLE6=Roger Miller - England Swings
TTITLE7=Kitty Wells - Left To Right
TTITLE8=George Jones - You Comb Her Hair
TTITLE9=Lynn Anderson - Frankie And Johnny
EXTD=
EXTT0=
EXTT1=
EXTT2=
EXTT3=
EXTT4=
EXTT5=
EXTT6=
EXTT7=
EXTT8=
EXTT9=
PLAYORDER=
